# xmcd
#
# Track frame offsets: 
#        150
#        21847
#        34320
#        52547
#        73067
#        91070
#        107802
#        130152
#        147797
#        164855
#        181022
#        195565
#        212997
#        227405
#        246370
#        264572
#
# Disc length: 3707 seconds
#
# Revision: 1
# Processed by: cddbd v1.5.2PL0 Copyright (c) Steve Scherf et al.
# Submitted via: ExactAudioCopyFreeDBPlugin 1.0
#
DISCID=de0e7910
DTITLE=Various Artist - CD02 고마워요, 소울 메이트
DYEAR=2007
DGENRE=Pop
TTITLE0=Jay Jay Johanson - Suffering
TTITLE1=Tom Mcrae - You Cut Her Hair
TTITLE2=Ben Folds Five - Mess
TTITLE3=Jeff Buckley - Lilac Wine
TTITLE4=Suede - Saturday Night
TTITLE5=Travis - Writing To Reach You
TTITLE6=Toto - I Won'T Hold You Back
TTITLE7=Will Young - All Time Love
TTITLE8=Maxwell - Whenever Wherever Whatever
TTITLE9=Buckshot Lefonque - Another Day
TTITLE10=Finley Quaye - Your Love Gets Sweeter
TTITLE11=Toploader - Dancing In The Moonlight
TTITLE12=Super Furry Animals - Juxtapozed With U
TTITLE13=Jamiroquai - Spend A Lifetime
TTITLE14=Air Supply - Two Less Lonely People In The World
TTITLE15=Kent - Sverige
EXTD=
EXTT0=
EXTT1=
EXTT2=
EXTT3=
EXTT4=
EXTT5=
EXTT6=
EXTT7=
EXTT8=
EXTT9=
EXTT10=
EXTT11=
EXTT12=
EXTT13=
EXTT14=
EXTT15=
PLAYORDER=
